<?xml version="1.0" encoding="UTF-8"?>
<svg id="Layer_1" data-name="Layer 1" xmlns="http://www.w3.org/2000/svg" viewBox="0 0 262 416.4">
  <defs>
    <style>
      .cls-1 {
        fill: #a8f1e5;
      }

      .cls-2 {
        fill: #8ecdfc;
      }

      .cls-3 {
        fill: #ed4c54;
      }

      .cls-4 {
        fill: #0f7986;
      }

      .cls-5 {
        fill: #fff;
      }

      .cls-6 {
        fill: #ffba1b;
      }

      .cls-7 {
        fill: #343434;
      }

      .cls-8 {
        fill: #e9e9e9;
      }

      .cls-9 {
        fill: #d1d2d4;
      }

      .cls-10 {
        fill: #15bdb2;
      }

      .cls-11 {
        fill: #21d0c3;
      }

      .cls-12 {
        fill: #ff5b62;
      }

      .cls-13 {
        fill: #fad24d;
      }
    </style>
  </defs>
  <g id="object">
    <g>
      <path class="cls-7" d="M28.7.1h204.6c15.9,0,28.7,12.8,28.7,28.7v358.9c0,15.9-12.9,28.7-28.7,28.7H28.7c-15.9,0-28.7-12.8-28.7-28.7V28.7C0,12.8,12.8,0,28.7,0h0v.1Z"/>
      <path class="cls-2" d="M35.6,37.4h190.7c12.6,0,22.7,10.1,22.7,22.7v284.6c0,12.6-10.1,22.8-22.7,22.8H35.6c-12.6,0-22.7-10.1-22.7-22.8V60.1c0-12.6,10.1-22.7,22.7-22.7h0Z"/>
      <path class="cls-8" d="M223.6,22.9c0,3.5-2.9,6.3-6.5,6.3s-6.5-2.8-6.5-6.3,2.9-6.3,6.5-6.3,6.5,2.8,6.5,6.3h0Z"/>
      <path class="cls-8" d="M115.9,14.7h26.3c3.3,0,6,2.7,6,6s-2.7,6-6,6h-26.3c-3.3,0-6-2.7-6-6s2.7-6,6-6h0Z"/>
      <path class="cls-8" d="M62.1,18c0,2-1.5,3.7-3.4,3.7s-3.4-1.7-3.4-3.7,1.6-3.7,3.4-3.7,3.4,1.7,3.4,3.7h0Z"/>
      <path class="cls-1" d="M37.3,37.4c-12.8,0-23.2,9.1-24.3,20.8l236,272.7V60.1c0-12.6-10.8-22.7-24.4-22.7H37.2h.1Z"/>
      <path class="cls-8" d="M143.2,389c0,6.5-5.4,11.6-12.1,11.6s-12-5.2-12-11.6,5.4-11.6,12-11.6,12.1,5.2,12.1,11.6h0Z"/>
    </g>
  </g>
  <ellipse class="cls-4" cx="130.9" cy="197.4" rx="118" ry="115.8"/>
  <path class="cls-9" d="M44.3,136.8h175.5v118.3c0,3.9-3.3,7.1-7.2,7.1H51.6c-4,0-7.2-3.2-7.2-7.1v-118.3h-.1Z"/>
  <path class="cls-5" d="M43.4,132.3h177.3v117.7c0,5-4.2,9.1-9.3,9.1H52.7c-5.1,0-9.3-4.1-9.3-9.1v-117.7h0Z"/>
  <rect class="cls-3" x="43.4" y="132.3" width="177.3" height="18"/>
  <rect class="cls-12" x="43.4" y="132.3" width="177.8" height="2.7"/>
  <path class="cls-11" d="M179,159.5h12.2v12h-12.2v-12Z"/>
  <path class="cls-13" d="M215,107c1.2.2,2.4.6,3.6.9l5.4-7,8.1,4.6-3.5,8.1c.9.8,1.8,1.7,2.6,2.6l8.2-3.5,4.7,7.9-7.2,5.3c.4,1.1.7,2.3,1,3.5l8.9,1v9.1l-8.9,1c-.2,1.2-.6,2.4-1,3.5l7.2,5.3-4.7,7.9-8.2-3.5c-.8.9-1.7,1.8-2.6,2.6l3.5,8.1-8.1,4.6-5.4-7.1c-1.2.4-2.4.7-3.6.9l-1,8.7h-9.3l-1-8.7c-1.2-.2-2.4-.6-3.6-.9l-5.4,7-8.1-4.6,3.5-8.1c-.9-.8-1.8-1.7-2.6-2.6l-8.2,3.5-4.7-7.9,7.2-5.3c-.4-1.1-.7-2.3-1-3.5l-8.9-1v-9.1l8.9-1c.2-1.2.6-2.4,1-3.5l-7.2-5.3,4.7-7.9,8.2,3.5c.8-.9,1.7-1.8,2.6-2.6l-3.5-8.1,8.1-4.6,5.4,7.1c1.2-.4,2.4-.7,3.6-.9l1-8.7h9.3l1,8.7h0ZM209.3,116c10.6,0,19.2,8.4,19.2,18.9s-8.6,18.9-19.2,18.9-19.2-8.4-19.2-18.9,8.6-18.9,19.2-18.9Z"/>
  <ellipse class="cls-11" cx="209.3" cy="134.9" rx="23.6" ry="23.1"/>
  <g>
    <path class="cls-5" d="M188.9,134.1h4.9v1.5h-4.9v-1.5h0ZM229.7,135.7h-4.9v-1.5h4.9v1.5ZM208.5,154.9v-4.8h1.6v4.8h-1.6ZM210.1,114.9v4.8h-1.6v-4.8h1.6Z"/>
    <path class="cls-5" d="M209.3,122.5h0c.6,0,1.1.5,1.1,1.1v10.5h10.7c.6,0,1.1.5,1.1,1.1h0c0,.6-.5,1.1-1.1,1.1h-11.8v-1.1h-1.1v-11.6c0-.6.5-1.1,1.1-1.1h0Z"/>
  </g>
  <ellipse class="cls-13" cx="209.3" cy="134.9" rx="2.2" ry="2.1"/>
  <g>
    <path class="cls-9" d="M86.9,159.5h12.2v12h-12.2v-12Z"/>
    <path class="cls-9" d="M105.3,159.5h12.2v12h-12.2v-12Z"/>
    <path class="cls-9" d="M123.7,159.5h12.2v12h-12.2v-12h0Z"/>
  </g>
  <path class="cls-11" d="M142.2,159.5h12.2v12h-12.2v-12Z"/>
  <path class="cls-9" d="M160.6,159.5h12.2v12h-12.2v-12Z"/>
  <path class="cls-13" d="M68.4,159.5h12.2v12h-12.2v-12Z"/>
  <path class="cls-9" d="M86.9,178.4h12.2v12h-12.2v-12Z"/>
  <path class="cls-11" d="M105.3,178.4h12.2v12h-12.2v-12Z"/>
  <path class="cls-9" d="M123.7,178.4h12.2v12h-12.2v-12h0Z"/>
  <path class="cls-13" d="M142.2,178.4h12.2v12h-12.2v-12Z"/>
  <g>
    <path class="cls-9" d="M160.6,178.4h12.2v12h-12.2v-12Z"/>
    <path class="cls-9" d="M179,178.4h12.2v12h-12.2v-12Z"/>
    <path class="cls-9" d="M68.4,178.4h12.2v12h-12.2v-12Z"/>
    <path class="cls-9" d="M86.9,197.3h12.2v12h-12.2v-12Z"/>
    <path class="cls-9" d="M105.3,197.3h12.2v12h-12.2v-12Z"/>
    <path class="cls-9" d="M123.7,197.3h12.2v12h-12.2v-12h0Z"/>
    <path class="cls-9" d="M142.2,197.3h12.2v12h-12.2v-12Z"/>
    <path class="cls-9" d="M160.6,197.3h12.2v12h-12.2v-12Z"/>
  </g>
  <g>
    <path class="cls-13" d="M179,197.3h12.2v12h-12.2v-12Z"/>
    <path class="cls-13" d="M68.4,197.3h12.2v12h-12.2v-12Z"/>
  </g>
  <path class="cls-6" d="M86.9,216.2h12.2v12h-12.2v-12Z"/>
  <g>
    <path class="cls-9" d="M105.3,216.2h12.2v12h-12.2v-12Z"/>
    <path class="cls-9" d="M123.7,216.2h12.2v12h-12.2v-12h0Z"/>
    <path class="cls-9" d="M142.2,216.2h12.2v12h-12.2v-12Z"/>
  </g>
  <path class="cls-11" d="M160.6,216.2h12.2v12h-12.2v-12Z"/>
  <g>
    <path class="cls-9" d="M179,216.2h12.2v12h-12.2v-12Z"/>
    <path class="cls-9" d="M68.4,216.2h12.2v12h-12.2v-12Z"/>
    <path class="cls-9" d="M86.9,234.5h12.2v12h-12.2v-12Z"/>
  </g>
  <path class="cls-11" d="M68.4,234.5h12.2v12h-12.2v-12Z"/>
  <path class="cls-5" d="M89.7,221.5c-.2-.2-.2-.6,0-.7.2-.2.6-.2.8,0l1.9,2.2,5.2-4.5c.2-.2.6-.2.8,0s.2.6,0,.7l-5.6,4.8h0c-.2.2-.6.2-.8,0l-2.2-2.6h0l-.1.1Z"/>
  <path class="cls-10" d="M94,207.5c3.9,0,7.4,1.5,10,4.1,2.6,2.5,4.1,6,4.1,9.8s-1.6,7.3-4.1,9.8c-2.6,2.5-6.1,4.1-10,4.1s-7.4-1.5-10-4.1c-2.6-2.5-4.1-6-4.1-9.8s1.6-7.3,4.1-9.8c2.6-2.5,6.1-4.1,10-4.1ZM102.6,212.9c-2.2-2.2-5.3-3.5-8.6-3.5s-6.4,1.3-8.6,3.5c-2.2,2.2-3.6,5.2-3.6,8.5s1.4,6.3,3.6,8.5c2.2,2.2,5.3,3.5,8.6,3.5s6.4-1.3,8.6-3.5c2.2-2.2,3.6-5.2,3.6-8.5s-1.4-6.3-3.6-8.5h0Z"/>
</svg>