<svg xmlns="http://www.w3.org/2000/svg" viewBox="0 14.5 69.43000030517578 35.790000915527344" data-asc="0.9912109375"><g fill="#371dfc"><g fill="#371dfc" transform="translate(0, 0)"><path d="M34.08 32.42Q34.08 36.65 32.90 39.95Q31.71 43.26 29.49 45.57Q27.27 47.88 24.12 49.08Q20.97 50.29 17.07 50.29Q13.09 50.29 9.92 49.06Q6.76 47.83 4.55 45.52Q2.34 43.21 1.17 39.90Q0 36.60 0 32.42Q0 28.15 1.18 24.82Q2.37 21.48 4.58 19.19Q6.79 16.89 9.95 15.70Q13.11 14.50 17.07 14.50Q21.02 14.50 24.17 15.71Q27.32 16.92 29.53 19.23Q31.74 21.53 32.91 24.87Q34.08 28.20 34.08 32.42M8.35 32.50Q8.35 39.28 10.52 42.90Q12.70 46.51 17.07 46.51Q19.14 46.51 20.75 45.65Q22.36 44.80 23.47 43.05Q24.58 41.31 25.16 38.66Q25.73 36.01 25.73 32.42Q25.73 25.37 23.49 21.81Q21.24 18.26 17.07 18.26Q12.92 18.26 10.63 21.79Q8.35 25.32 8.35 32.50ZM53.10 15.06L67.82 15.06L68.43 18.21Q68.65 19.41 68.85 20.58Q69.04 21.75 69.17 22.53L64.67 22.95Q64.53 22.07 64.34 21.19Q64.16 20.31 63.82 19.41Q62.62 19.09 61.23 18.96Q59.84 18.82 58.06 18.82Q57.59 18.82 57.02 18.82Q56.45 18.82 55.69 18.84Q54.93 18.85 53.93 18.87Q52.93 18.90 51.61 18.92L51.61 30.32L57.28 30.32Q58.06 30.32 58.53 30.20Q59.01 30.08 59.31 29.75Q59.62 29.42 59.83 28.83Q60.03 28.25 60.28 27.34L62.72 27.34Q62.72 29.79 62.67 32.21Q62.62 34.64 62.55 36.94Q62.33 36.96 62.11 36.96Q61.89 36.96 61.67 36.96Q61.25 36.96 60.83 36.95Q60.40 36.94 59.99 36.94Q59.72 35.96 59.48 35.33Q59.25 34.69 58.97 34.33Q58.69 33.96 58.35 33.83Q58.01 33.69 57.54 33.69L51.61 33.69L51.61 46.00L60.67 46.00Q61.82 46.00 62.68 45.84Q63.55 45.68 63.96 45.41Q64.16 44.87 64.33 43.87Q64.50 42.87 64.70 41.19Q65.77 41.21 66.96 41.22Q68.14 41.24 69.43 41.24L69.36 44.34Q69.31 45.56 69.25 46.81Q69.19 48.07 69.12 49.12Q68.04 49.29 66.98 49.41Q65.92 49.54 64.75 49.61Q63.57 49.68 62.27 49.72Q60.96 49.76 59.42 49.76Q57.54 49.76 55.88 49.73Q54.22 49.71 52.69 49.67Q51.15 49.63 49.72 49.60Q48.29 49.56 46.90 49.56Q44.60 49.56 42.64 49.58Q40.67 49.61 38.70 49.73L38.70 46.00L41.43 46.00Q42.02 46.00 42.54 45.98Q43.07 45.97 43.55 45.90Q43.68 45.41 43.75 44.81Q43.82 44.21 43.82 43.43L43.82 21.63Q43.82 20.80 43.74 20.19Q43.65 19.58 43.53 19.09Q43.07 18.99 42.55 18.98Q42.04 18.97 41.46 18.97L38.55 18.97L38.55 15.72Q41.97 15.36 45.64 15.21Q49.32 15.06 53.10 15.06Z"/></g></g></svg>