<?xml version="1.0" encoding="UTF-8"?>
<svg id="_4" data-name="4" xmlns="http://www.w3.org/2000/svg" viewBox="0 0 800 429.16">
  <defs>
    <style>
      .cls-1 {
        opacity: .5;
      }

      .cls-1, .cls-2 {
        fill: #f4f4f5;
      }

      .cls-1, .cls-2, .cls-3 {
        isolation: isolate;
      }

      .cls-2 {
        opacity: .3;
      }

      .cls-4 {
        fill: #006b99;
        fill-rule: evenodd;
      }

      .cls-5 {
        fill: #b0ddd1;
      }

      .cls-6 {
        fill: #1d1e1e;
      }

      .cls-7 {
        fill: #2d2d2d;
      }

      .cls-8 {
        fill: #666767;
      }

      .cls-9 {
        fill: #c8c7c7;
      }

      .cls-10 {
        fill: #9f9e9f;
      }

      .cls-3 {
        fill: #fff;
        opacity: .1;
      }
    </style>
  </defs>
  <path class="cls-6" d="M708.07,15.05v399.05c0,8.24-6.82,15.05-15.05,15.05H106.98c-8.24,0-15.05-6.82-15.05-15.05V15.05c0-8.33,6.82-15.05,15.05-15.05h586.04c8.24,0,15.05,6.72,15.05,15.05Z"/>
  <polygon class="cls-10" points="361.64 94.02 361.65 94.04 361.65 94.02 361.64 94.02"/>
  <polygon class="cls-2" points="361.65 99.25 362.89 99.25 361.65 94.04 361.65 99.25"/>
  <g>
    <path class="cls-5" d="M681.21,48.19v343.52c0,11.2-9.18,20.32-20.46,20.32H135.35c-1.55,0-3-.18-4.46-.54-9.18-1.99-16-10.11-16-19.78V48.19c0-11.2,9.18-20.32,20.46-20.32h525.4c11.27,0,20.46,9.12,20.46,20.32Z"/>
    <path class="cls-5" d="M590.82,27.87L204.64,411.48h-86.2c-1.91,0-3.55-1.63-3.55-3.61V48.19c0-11.2,9.18-20.32,20.46-20.32h455.47Z"/>
  </g>
  <path class="cls-9" d="M800,394.89l-1.23,4.45-5.3,18.75c0,6.15-7.38,11.08-16.47,11.08H23.01c-9.09,0-16.47-4.92-16.47-11.08l-4.17-14.67-2.27-8.14-.1-.38h800Z"/>
  <path class="cls-8" d="M514.24,394.9h0c0,6.1-4.95,11.05-11.05,11.05h-206.38c-6.1,0-11.05-4.95-11.05-11.05h228.47Z"/>
  <path class="cls-1" d="M800,394.89v4.45h-282.89c0,6.06-7.57,10.98-16.95,10.98h-200.33c-9.37,0-16.95-4.92-16.95-10.98H0v-4.45h285.73c0,.96.32,1.82.55,2.71,1.8,4.82,8.24,8.37,16.02,8.37h195.41c7.78,0,14.22-3.55,16.02-8.37.23-.89.55-1.75.55-2.71h285.73Z"/>
  <path class="cls-3" d="M420.26,394.89l-13.07,11.08-5.21,4.35-6.63,5.59-15.62,13.25H23.01c-9.09,0-16.47-4.92-16.47-11.08l-4.17-14.67-2.27-8.14-.1-.38h420.26Z"/>
  <path class="cls-4" d="M222.92,142.44c-9.59-3.99-19.96-5.71-30.32-5.03-10.36.68-20.42,3.75-29.41,8.96l-9.07,5.26-10.47-18.21,9.07-5.26c11.77-6.82,24.95-10.84,38.51-11.73,13.56-.89,27.15,1.36,39.7,6.58,12.56,5.22,23.75,13.27,32.71,23.53,8.96,10.26,15.45,22.45,18.97,35.63,3.52,13.18,3.97,27,1.32,40.38-2.65,13.38-8.33,25.97-16.61,36.8-8.27,10.83-18.92,19.59-31.11,25.63-12.19,6.04-27.91,9.17-39.19,9.17s-17.86-1.7-26.51-5.29c-8.4-3.5-16.04-8.62-22.47-15.08-6.43-6.46-11.54-14.13-15.02-22.56-3.48-8.44-5.27-17.48-5.27-26.62s1.79-18.18,5.27-26.62c3.48-8.44,8.58-16.1,15.02-22.56,6.43-6.46,14.07-11.58,22.47-15.08,8.4-3.5,17.41-5.29,26.51-5.29s18.11,1.8,26.51,5.29c8.4,3.49,16.04,8.62,22.47,15.08,6.43,6.46,11.54,14.13,15.02,22.56,1.5,3.63,2.68,7.37,3.55,11.18.42-7.24-.31-14.52-2.19-21.56-2.69-10.06-7.64-19.37-14.49-27.21-6.84-7.83-15.39-13.98-24.98-17.97ZM155.2,248.92c1.19-22.6,19.82-40.57,42.63-40.57s40,16.6,42.42,37.97c.51-1.03.99-2.08,1.43-3.14,2.43-5.89,3.68-12.2,3.68-18.57s-1.25-12.68-3.68-18.57c-2.43-5.89-5.99-11.24-10.48-15.74-4.49-4.51-9.82-8.08-15.68-10.52-5.86-2.44-12.15-3.69-18.5-3.69s-12.63,1.25-18.5,3.69c-5.86,2.44-11.19,6.01-15.68,10.52-4.49,4.51-8.05,9.85-10.48,15.74-2.43,5.89-3.68,12.2-3.68,18.57s1.25,12.68,3.68,18.57c.82,1.98,1.76,3.9,2.83,5.74ZM219.58,251.22c0,12.06-9.74,21.84-21.75,21.84s-21.75-9.78-21.75-21.84,9.74-21.84,21.75-21.84,21.75,9.78,21.75,21.84Z"/>
  <path class="cls-7" d="M349.37,265.2l-28.73-102.21h19.83l18.34,75.11h.94l19.58-75.11h18.04l19.63,75.16h.89l18.34-75.16h19.83l-28.73,102.21h-18.19l-20.38-71.71h-.8l-20.43,71.71h-18.19ZM484.68,220.29v44.91h-17.99v-102.21h17.6v38.58h.89c1.79-4.33,4.56-7.74,8.3-10.23,3.78-2.53,8.58-3.79,14.42-3.79,5.3,0,9.93,1.11,13.87,3.34,3.94,2.23,6.99,5.49,9.15,9.78,2.19,4.29,3.28,9.53,3.28,15.72v48.81h-18v-46.01c0-5.16-1.33-9.17-3.98-12.03-2.62-2.89-6.3-4.34-11.04-4.34-3.18,0-6.03.7-8.55,2.1-2.49,1.36-4.44,3.34-5.87,5.94-1.39,2.6-2.09,5.74-2.09,9.43ZM551.13,265.2v-76.65h18v76.65h-18ZM560.18,177.67c-2.85,0-5.3-.95-7.36-2.84-2.05-1.93-3.08-4.24-3.08-6.94s1.03-5.04,3.08-6.94c2.06-1.93,4.51-2.89,7.36-2.89s5.33.96,7.36,2.89c2.06,1.9,3.08,4.21,3.08,6.94s-1.03,5.01-3.08,6.94c-2.02,1.9-4.47,2.84-7.36,2.84ZM586.23,265.2v-76.65h17.45v12.78h.79c1.4-4.43,3.78-7.84,7.16-10.23,3.41-2.43,7.31-3.64,11.69-3.64.99,0,2.1.05,3.33.15,1.26.07,2.3.18,3.13.35v16.62c-.76-.27-1.97-.5-3.63-.7-1.63-.23-3.2-.35-4.73-.35-3.28,0-6.23.72-8.84,2.15-2.59,1.4-4.63,3.34-6.12,5.84-1.49,2.5-2.23,5.37-2.23,8.63v45.06h-18ZM658.33,162.99v102.21h-18v-102.21h18Z"/>
</svg>